<svg id="svg" version="1.1" xmlns="http://www.w3.org/2000/svg" xmlns:xlink="http://www.w3.org/1999/xlink" width="400" height="388.49315068493155" viewBox="0, 0, 400,388.49315068493155"><g id="svgg"><path id="path0" d="M188.144 2.663 C 188.144 2.845,185.655 3.117,182.614 3.268 C 179.404 3.427,176.977 3.716,176.827 3.957 C 176.686 4.186,176.069 4.356,175.457 4.336 C 173.645 4.275,166.214 5.138,165.792 5.459 C 165.578 5.621,164.223 5.879,162.779 6.032 C 161.336 6.185,160.155 6.442,160.155 6.603 C 160.155 6.765,159.106 7.015,157.823 7.161 C 156.540 7.306,155.491 7.610,155.491 7.836 C 155.491 8.078,155.101 8.150,154.543 8.010 C 154.021 7.879,153.501 7.924,153.385 8.111 C 153.270 8.297,152.297 8.566,151.223 8.709 C 150.150 8.851,149.271 9.120,149.271 9.306 C 149.271 9.493,148.397 9.766,147.328 9.913 C 146.259 10.060,145.384 10.310,145.384 10.470 C 145.384 10.629,144.159 10.979,142.663 11.246 C 141.166 11.514,139.942 11.876,139.942 12.052 C 139.942 12.227,139.242 12.489,138.387 12.634 C 137.532 12.778,136.832 13.038,136.832 13.212 C 136.832 13.386,135.914 13.745,134.791 14.011 C 133.669 14.276,132.405 14.731,131.983 15.021 C 131.562 15.312,130.893 15.549,130.498 15.549 C 130.103 15.549,129.517 15.811,129.196 16.132 C 128.875 16.453,128.188 16.715,127.669 16.715 C 127.150 16.715,126.725 16.901,126.725 17.127 C 126.725 17.353,126.550 17.430,126.336 17.298 C 126.122 17.166,125.948 17.243,125.948 17.470 C 125.948 17.696,125.554 17.883,125.073 17.884 C 124.023 17.887,121.937 19.183,122.337 19.583 C 122.492 19.739,122.318 19.750,121.948 19.609 C 121.579 19.467,120.882 19.610,120.399 19.926 C 119.917 20.242,118.956 20.625,118.264 20.777 C 117.573 20.929,117.007 21.200,117.007 21.380 C 117.007 21.560,116.482 21.822,115.841 21.963 C 115.199 22.104,114.674 22.373,114.674 22.561 C 114.674 22.750,113.975 23.113,113.120 23.370 C 112.264 23.626,111.565 23.983,111.565 24.163 C 111.565 24.343,111.297 24.490,110.969 24.490 C 110.642 24.490,110.281 24.733,110.167 25.029 C 110.053 25.326,109.184 25.786,108.236 26.052 C 107.287 26.317,106.511 26.687,106.511 26.873 C 106.511 27.059,106.255 27.211,105.942 27.211 C 105.629 27.211,105.206 27.522,105.002 27.903 C 104.798 28.284,104.227 28.626,103.732 28.663 C 103.238 28.701,102.636 29.001,102.394 29.331 C 102.153 29.662,101.745 29.932,101.489 29.932 C 101.233 29.932,101.130 30.105,101.261 30.316 C 101.391 30.528,101.255 30.607,100.957 30.493 C 100.660 30.379,100.192 30.556,99.918 30.886 C 99.643 31.217,99.197 31.487,98.925 31.487 C 98.653 31.487,98.337 31.733,98.221 32.033 C 98.106 32.334,97.490 32.694,96.852 32.835 C 96.214 32.975,95.595 33.341,95.477 33.649 C 95.359 33.956,94.995 34.208,94.667 34.208 C 94.340 34.208,94.072 34.362,94.072 34.550 C 94.072 34.737,93.560 35.103,92.934 35.363 C 92.308 35.622,91.701 36.080,91.585 36.382 C 91.470 36.683,91.107 36.929,90.780 36.929 C 90.453 36.929,90.185 37.083,90.185 37.271 C 90.185 37.458,89.672 37.824,89.046 38.084 C 88.420 38.343,87.814 38.802,87.698 39.103 C 87.582 39.404,87.322 39.650,87.120 39.650 C 86.750 39.650,85.443 40.654,83.703 42.274 C 83.186 42.755,82.595 43.149,82.390 43.149 C 82.184 43.149,81.636 43.586,81.171 44.121 C 80.707 44.655,80.162 45.092,79.962 45.092 C 79.762 45.092,78.961 45.748,78.183 46.550 C 77.405 47.352,76.595 48.058,76.382 48.119 C 75.535 48.364,74.231 49.806,74.485 50.217 C 74.648 50.480,74.581 50.547,74.317 50.384 C 74.076 50.235,73.573 50.470,73.199 50.907 C 72.825 51.343,72.387 51.701,72.226 51.701 C 71.684 51.701,59.086 64.516,59.086 65.067 C 59.086 65.367,58.813 65.717,58.479 65.845 C 58.139 65.975,57.994 66.277,58.150 66.530 C 58.321 66.807,58.260 66.876,57.990 66.710 C 57.585 66.459,55.237 68.630,55.211 69.280 C 55.204 69.435,54.445 70.316,53.524 71.237 C 52.602 72.159,51.733 73.213,51.592 73.580 C 51.452 73.947,51.168 74.247,50.962 74.247 C 50.756 74.247,50.482 74.579,50.353 74.984 C 50.224 75.390,49.519 76.396,48.785 77.219 C 46.382 79.919,46.259 80.074,46.259 80.406 C 46.259 80.587,45.909 81.051,45.481 81.438 C 45.053 81.825,44.704 82.377,44.704 82.665 C 44.704 82.952,44.524 83.188,44.305 83.188 C 44.086 83.188,43.741 83.625,43.537 84.159 C 43.334 84.694,42.989 85.131,42.770 85.131 C 42.550 85.131,42.371 85.381,42.371 85.687 C 42.371 85.992,42.096 86.517,41.760 86.853 C 41.424 87.189,41.262 87.464,41.399 87.464 C 41.537 87.464,41.374 87.738,41.038 88.074 C 40.702 88.410,40.428 88.916,40.428 89.199 C 40.428 89.482,40.165 89.813,39.845 89.936 C 39.524 90.060,39.261 90.409,39.261 90.714 C 39.261 91.018,39.023 91.359,38.732 91.471 C 38.052 91.732,37.626 93.289,38.229 93.310 C 38.476 93.319,38.197 93.587,37.609 93.906 C 37.021 94.224,36.540 94.742,36.540 95.056 C 36.540 95.370,36.398 95.627,36.224 95.627 C 36.050 95.627,35.668 96.239,35.374 96.987 C 35.081 97.736,34.698 98.348,34.524 98.348 C 34.350 98.348,34.208 98.530,34.208 98.752 C 34.208 98.975,33.838 99.658,33.385 100.270 C 32.932 100.883,32.669 101.557,32.799 101.769 C 32.930 101.980,32.794 102.247,32.496 102.362 C 32.198 102.476,31.735 103.233,31.467 104.044 C 31.200 104.854,30.745 105.754,30.456 106.042 C 30.168 106.331,29.932 106.817,29.932 107.122 C 29.932 107.427,29.757 107.677,29.543 107.677 C 29.329 107.677,29.183 107.809,29.217 107.969 C 29.252 108.129,29.077 108.753,28.829 109.355 C 28.580 109.957,28.377 110.613,28.377 110.812 C 28.377 111.012,28.205 111.176,27.996 111.176 C 27.786 111.176,27.505 111.613,27.371 112.148 C 27.236 112.682,26.987 113.120,26.816 113.120 C 26.645 113.120,26.281 113.994,26.007 115.063 C 25.733 116.132,25.381 117.007,25.225 117.007 C 25.068 117.007,24.825 117.532,24.684 118.173 C 24.543 118.814,24.295 119.339,24.132 119.339 C 23.970 119.339,23.606 120.301,23.324 121.477 C 23.042 122.653,22.672 123.615,22.502 123.615 C 22.332 123.615,22.078 124.227,21.937 124.976 C 21.797 125.724,21.541 126.336,21.368 126.336 C 21.195 126.336,20.931 126.905,20.783 127.600 C 20.634 128.294,20.343 129.074,20.135 129.332 C 19.928 129.590,19.871 129.983,20.009 130.206 C 20.147 130.430,20.094 130.612,19.892 130.612 C 19.690 130.612,19.407 131.399,19.262 132.362 C 19.118 133.324,18.851 134.111,18.669 134.111 C 18.487 134.111,18.220 134.810,18.076 135.664 C 17.932 136.518,17.678 137.300,17.513 137.403 C 17.347 137.505,16.978 138.905,16.692 140.514 C 16.406 142.124,16.038 143.440,15.874 143.440 C 15.710 143.440,15.460 144.315,15.318 145.384 C 15.176 146.453,14.923 147.328,14.756 147.328 C 14.588 147.328,14.236 148.902,13.973 150.826 C 13.710 152.750,13.357 154.325,13.188 154.325 C 13.019 154.325,12.759 155.724,12.610 157.434 C 12.461 159.145,12.211 160.544,12.054 160.544 C 11.897 160.544,11.573 162.250,11.332 164.334 C 11.092 166.419,10.731 169.086,10.531 170.262 C 10.331 171.438,10.039 175.505,9.882 179.300 C 9.725 183.095,9.449 186.200,9.269 186.200 C 9.088 186.200,8.941 189.874,8.941 194.363 C 8.941 198.853,9.088 202.527,9.269 202.527 C 9.449 202.527,9.725 205.632,9.882 209.427 C 10.039 213.222,10.331 217.289,10.531 218.465 C 10.731 219.640,11.092 222.308,11.332 224.393 C 11.573 226.477,11.900 228.183,12.059 228.183 C 12.218 228.183,12.474 229.363,12.627 230.807 C 12.779 232.250,13.035 233.605,13.194 233.819 C 13.353 234.033,13.714 235.739,13.996 237.609 C 14.278 239.480,14.635 241.011,14.789 241.011 C 14.944 241.011,15.191 241.973,15.338 243.149 C 15.485 244.325,15.752 245.287,15.931 245.287 C 16.110 245.287,16.463 246.511,16.715 248.008 C 16.968 249.504,17.317 250.729,17.491 250.729 C 17.666 250.729,17.929 251.603,18.076 252.672 C 18.223 253.741,18.482 254.616,18.652 254.616 C 18.822 254.616,19.076 255.228,19.216 255.977 C 19.357 256.725,19.650 257.337,19.869 257.337 C 20.089 257.337,20.156 257.683,20.019 258.115 C 19.884 258.542,19.940 258.892,20.143 258.892 C 20.347 258.892,20.632 259.679,20.777 260.641 C 20.921 261.603,21.195 262.391,21.386 262.391 C 21.577 262.391,21.848 263.003,21.989 263.751 C 22.129 264.500,22.382 265.112,22.551 265.112 C 22.719 265.112,23.067 265.986,23.324 267.055 C 23.580 268.124,23.928 268.999,24.097 268.999 C 24.265 268.999,24.516 269.599,24.653 270.331 C 24.791 271.064,25.100 271.729,25.341 271.810 C 25.582 271.890,25.843 272.372,25.920 272.881 C 26.084 273.953,27.655 277.295,28.086 277.486 C 28.246 277.557,28.377 277.864,28.377 278.167 C 28.377 278.469,28.547 278.717,28.754 278.717 C 28.961 278.717,29.029 278.980,28.906 279.300 C 28.783 279.621,28.876 279.883,29.113 279.883 C 29.350 279.883,29.518 280.015,29.488 280.175 C 29.390 280.689,30.385 282.993,30.705 282.993 C 30.875 282.993,31.131 283.460,31.274 284.032 C 31.418 284.603,31.874 285.501,32.288 286.028 C 32.703 286.554,33.042 287.224,33.042 287.516 C 33.042 287.808,33.203 288.047,33.400 288.047 C 33.596 288.047,33.870 288.557,34.006 289.180 C 34.143 289.804,34.491 290.404,34.778 290.515 C 35.066 290.625,35.415 291.237,35.556 291.875 C 35.696 292.513,36.062 293.132,36.370 293.250 C 36.677 293.368,36.929 293.732,36.929 294.060 C 36.929 294.387,37.061 294.655,37.223 294.655 C 37.385 294.655,37.767 295.224,38.074 295.918 C 38.734 297.416,39.456 298.218,39.819 297.855 C 39.962 297.712,39.965 297.895,39.823 298.263 C 39.682 298.630,39.743 298.931,39.959 298.931 C 40.175 298.931,40.534 299.456,40.758 300.097 C 40.982 300.739,41.349 301.263,41.574 301.263 C 41.798 301.263,41.983 301.517,41.983 301.827 C 41.983 302.137,42.201 302.531,42.469 302.702 C 42.737 302.873,43.212 303.509,43.524 304.115 C 43.837 304.721,44.493 305.649,44.982 306.176 C 45.470 306.703,45.870 307.261,45.870 307.417 C 45.870 307.572,46.220 307.998,46.647 308.365 C 47.075 308.731,47.425 309.288,47.425 309.604 C 47.425 309.919,47.775 310.364,48.202 310.593 C 48.630 310.822,48.980 311.265,48.980 311.578 C 48.980 311.891,49.114 312.148,49.278 312.148 C 49.443 312.148,49.836 312.567,50.153 313.080 C 50.881 314.260,53.400 317.280,55.296 319.248 C 56.098 320.080,56.754 320.894,56.754 321.057 C 56.754 321.219,57.323 321.897,58.017 322.563 C 60.225 324.679,62.585 327.182,62.585 327.409 C 62.585 327.775,66.803 331.973,67.170 331.973 C 67.359 331.973,68.044 332.541,68.692 333.236 C 69.340 333.931,70.199 334.781,70.601 335.124 C 71.003 335.468,71.604 336.080,71.936 336.485 C 72.269 336.889,73.027 337.570,73.622 337.998 C 74.216 338.426,75.431 339.434,76.321 340.239 C 79.568 343.175,80.100 343.619,80.860 344.026 C 81.287 344.254,82.203 344.964,82.897 345.604 C 85.002 347.542,85.299 347.775,86.006 348.030 C 86.380 348.165,86.686 348.444,86.686 348.650 C 86.686 348.856,87.053 349.141,87.502 349.283 C 87.951 349.426,88.630 349.831,89.011 350.184 C 90.309 351.387,91.508 352.187,92.013 352.187 C 92.290 352.187,92.517 352.366,92.517 352.585 C 92.517 352.804,92.954 353.150,93.489 353.353 C 94.023 353.556,94.461 353.902,94.461 354.121 C 94.461 354.340,94.628 354.519,94.832 354.519 C 95.176 354.519,97.613 356.004,98.572 356.798 C 98.802 356.989,99.371 357.266,99.835 357.413 C 100.300 357.561,100.680 357.816,100.680 357.980 C 100.680 358.145,101.686 358.783,102.915 359.400 C 104.145 360.016,105.382 360.745,105.664 361.018 C 105.947 361.292,106.428 361.516,106.733 361.516 C 107.039 361.516,107.289 361.677,107.289 361.875 C 107.289 362.072,107.945 362.447,108.746 362.708 C 109.548 362.970,110.292 363.315,110.398 363.476 C 110.692 363.918,114.330 365.792,114.894 365.792 C 115.165 365.792,115.445 365.923,115.517 366.084 C 115.728 366.559,122.356 369.679,123.155 369.679 C 123.408 369.679,123.615 369.835,123.615 370.025 C 123.615 370.215,124.227 370.485,124.976 370.625 C 125.724 370.766,126.336 371.030,126.336 371.213 C 126.336 371.396,127.211 371.755,128.280 372.012 C 129.349 372.268,130.224 372.616,130.224 372.785 C 130.224 372.953,130.836 373.206,131.584 373.347 C 132.332 373.487,132.945 373.750,132.945 373.931 C 132.945 374.112,134.082 374.486,135.471 374.762 C 136.861 375.038,137.998 375.392,137.998 375.547 C 137.998 375.703,138.698 375.949,139.553 376.093 C 140.408 376.238,141.108 376.497,141.108 376.668 C 141.108 376.840,142.245 377.207,143.635 377.483 C 145.024 377.759,146.161 378.112,146.161 378.266 C 146.161 378.421,147.036 378.667,148.105 378.814 C 149.174 378.961,150.049 379.228,150.049 379.406 C 150.049 379.584,151.011 379.850,152.187 379.997 C 153.362 380.144,154.325 380.394,154.325 380.553 C 154.325 380.712,155.899 381.057,157.823 381.320 C 159.747 381.583,161.322 381.946,161.322 382.126 C 161.322 382.306,162.721 382.576,164.431 382.725 C 166.142 382.874,167.541 383.125,167.541 383.281 C 167.541 383.564,169.511 383.815,175.510 384.297 C 177.221 384.434,178.718 384.700,178.837 384.887 C 178.956 385.074,182.499 385.343,186.709 385.484 C 190.919 385.625,194.363 385.888,194.363 386.067 C 194.363 386.495,207.083 386.495,207.348 386.068 C 207.459 385.888,210.914 385.624,215.027 385.481 C 219.140 385.338,222.602 385.077,222.720 384.900 C 222.838 384.724,225.515 384.353,228.669 384.076 C 231.822 383.800,234.402 383.441,234.402 383.280 C 234.402 383.119,235.714 382.864,237.318 382.714 C 238.921 382.564,240.233 382.314,240.233 382.160 C 240.233 382.005,241.808 381.656,243.732 381.383 C 245.656 381.111,247.230 380.745,247.230 380.570 C 247.230 380.395,248.280 380.129,249.563 379.981 C 250.845 379.832,251.895 379.567,251.895 379.393 C 251.895 379.219,252.638 378.954,253.547 378.805 C 254.456 378.655,255.374 378.396,255.588 378.231 C 255.802 378.065,257.026 377.706,258.309 377.433 C 259.592 377.160,260.816 376.806,261.030 376.647 C 261.244 376.488,262.075 376.235,262.877 376.085 C 263.678 375.935,264.334 375.665,264.334 375.485 C 264.334 375.304,264.945 375.042,265.691 374.902 C 266.438 374.762,266.968 374.517,266.869 374.358 C 266.771 374.198,267.122 374.150,267.650 374.251 C 268.188 374.354,268.610 374.251,268.610 374.018 C 268.610 373.789,269.223 373.487,269.971 373.347 C 270.719 373.206,271.331 372.936,271.331 372.746 C 271.331 372.556,271.625 372.400,271.984 372.400 C 272.931 372.400,275.219 371.520,275.219 371.156 C 275.219 370.985,275.643 370.845,276.163 370.845 C 276.682 370.845,277.361 370.592,277.671 370.282 C 277.981 369.971,278.737 369.595,279.351 369.444 C 279.964 369.294,281.076 368.848,281.821 368.453 C 282.566 368.059,283.397 367.736,283.668 367.736 C 283.938 367.736,284.159 367.575,284.159 367.378 C 284.159 367.181,284.684 366.905,285.326 366.764 C 285.967 366.623,286.492 366.360,286.492 366.180 C 286.492 366.000,287.148 365.638,287.949 365.377 C 288.751 365.116,289.495 364.796,289.602 364.667 C 289.708 364.537,290.839 363.907,292.115 363.265 C 294.620 362.005,295.519 361.343,295.181 361.006 C 295.063 360.888,295.334 360.887,295.783 361.005 C 296.231 361.122,296.599 361.036,296.599 360.814 C 296.599 360.592,297.211 360.208,297.959 359.961 C 298.707 359.714,299.320 359.351,299.320 359.154 C 299.320 358.956,299.555 358.795,299.843 358.795 C 300.131 358.795,300.787 358.448,301.301 358.025 C 301.815 357.601,302.410 357.114,302.624 356.941 C 302.838 356.769,303.581 356.395,304.276 356.110 C 304.971 355.824,305.539 355.437,305.539 355.249 C 305.539 355.061,305.793 354.908,306.103 354.908 C 306.413 354.908,306.807 354.689,306.978 354.421 C 307.149 354.154,307.813 353.675,308.455 353.358 C 309.096 353.040,309.972 352.428,310.402 351.998 C 310.831 351.567,311.638 350.979,312.195 350.691 C 312.752 350.404,313.662 349.748,314.216 349.234 C 314.770 348.720,315.405 348.299,315.626 348.299 C 315.847 348.299,316.247 347.949,316.514 347.522 C 316.781 347.094,317.221 346.744,317.493 346.744 C 317.764 346.744,318.286 346.395,318.652 345.967 C 319.018 345.539,319.450 345.190,319.613 345.190 C 319.775 345.190,320.517 344.621,321.262 343.926 C 323.182 342.134,325.793 339.967,326.234 339.799 C 326.962 339.522,341.691 325.179,341.691 324.747 C 341.691 324.595,342.526 323.666,343.547 322.682 C 344.568 321.699,345.924 320.203,346.560 319.359 C 347.196 318.514,348.154 317.341,348.688 316.752 C 349.223 316.164,350.010 315.228,350.437 314.673 C 350.865 314.118,351.488 313.333,351.822 312.930 C 352.156 312.527,352.768 311.723,353.183 311.144 C 353.597 310.566,354.242 309.816,354.616 309.479 C 354.990 309.141,355.296 308.642,355.296 308.368 C 355.296 308.095,355.450 307.872,355.638 307.872 C 355.826 307.872,356.192 307.360,356.451 306.733 C 356.710 306.107,357.169 305.501,357.470 305.385 C 357.771 305.270,358.017 304.926,358.017 304.621 C 358.017 304.317,358.280 303.967,358.601 303.844 C 358.921 303.721,359.184 303.379,359.184 303.084 C 359.184 302.790,359.530 302.128,359.954 301.614 C 361.183 300.124,361.291 299.965,361.904 298.737 C 362.224 298.095,362.706 297.431,362.973 297.260 C 363.241 297.089,363.460 296.695,363.460 296.385 C 363.460 296.075,363.602 295.821,363.776 295.821 C 363.950 295.821,364.332 295.209,364.626 294.461 C 364.919 293.712,365.302 293.100,365.476 293.100 C 365.650 293.100,365.792 292.832,365.792 292.505 C 365.792 292.177,366.044 291.813,366.351 291.695 C 366.659 291.577,367.023 290.970,367.160 290.347 C 367.297 289.723,367.558 289.213,367.741 289.213 C 367.924 289.213,368.295 288.601,368.566 287.852 C 368.837 287.104,369.190 286.492,369.351 286.492 C 369.512 286.492,369.759 285.881,369.899 285.135 C 370.039 284.388,370.283 283.858,370.441 283.956 C 370.600 284.053,370.959 283.440,371.238 282.592 C 371.518 281.743,371.880 281.050,372.043 281.050 C 372.206 281.050,372.454 280.525,372.595 279.883 C 372.736 279.242,372.984 278.717,373.147 278.717 C 373.309 278.717,373.673 278.017,373.955 277.162 C 374.238 276.307,374.601 275.607,374.764 275.607 C 374.927 275.607,375.175 275.083,375.316 274.441 C 375.457 273.800,375.725 273.275,375.912 273.275 C 376.099 273.275,376.367 272.663,376.508 271.914 C 376.648 271.166,376.902 270.554,377.072 270.554 C 377.243 270.554,377.606 269.679,377.880 268.610 C 378.154 267.541,378.512 266.667,378.676 266.667 C 378.840 266.667,379.088 266.054,379.229 265.306 C 379.369 264.558,379.612 263.946,379.767 263.946 C 379.923 263.946,380.282 262.983,380.564 261.808 C 380.846 260.632,381.213 259.670,381.379 259.670 C 381.546 259.670,381.800 258.882,381.945 257.920 C 382.089 256.958,382.338 256.171,382.498 256.171 C 382.659 256.171,383.013 255.121,383.285 253.839 C 383.557 252.556,383.911 251.506,384.071 251.506 C 384.231 251.506,384.487 250.675,384.639 249.660 C 384.791 248.644,385.066 247.721,385.249 247.607 C 385.432 247.494,385.794 246.094,386.053 244.497 C 386.313 242.900,386.696 241.480,386.905 241.342 C 387.114 241.203,387.173 240.505,387.035 239.787 C 386.858 238.866,386.897 238.655,387.167 239.067 C 387.459 239.513,387.550 239.352,387.555 238.387 C 387.558 237.692,387.713 237.123,387.899 237.123 C 388.085 237.123,388.361 236.032,388.512 234.698 C 388.663 233.364,388.938 232.090,389.123 231.867 C 389.308 231.644,389.551 230.418,389.663 229.142 C 390.025 225.014,390.394 222.551,390.680 222.352 C 391.069 222.081,391.373 217.299,390.985 217.538 C 390.812 217.645,390.671 217.548,390.671 217.321 C 390.671 217.095,390.845 216.910,391.059 216.910 C 391.273 216.910,391.448 216.050,391.448 214.998 C 391.448 213.815,391.633 213.025,391.934 212.925 C 392.619 212.697,392.641 177.048,391.958 175.666 C 391.704 175.153,391.381 172.852,391.240 170.554 C 391.099 168.256,390.864 166.375,390.716 166.375 C 390.568 166.375,390.222 164.235,389.947 161.618 C 389.672 159.002,389.306 156.772,389.134 156.662 C 388.961 156.552,388.695 155.369,388.541 154.033 C 388.388 152.697,388.124 151.603,387.957 151.603 C 387.789 151.603,387.530 150.466,387.381 149.077 C 387.232 147.687,386.974 146.550,386.807 146.550 C 386.641 146.550,386.280 145.238,386.006 143.635 C 385.732 142.031,385.363 140.719,385.187 140.719 C 385.011 140.719,384.750 139.845,384.609 138.776 C 384.467 137.707,384.214 136.832,384.046 136.832 C 383.879 136.832,383.623 136.131,383.479 135.275 C 383.334 134.419,383.073 133.807,382.898 133.915 C 382.723 134.023,382.672 133.761,382.784 133.332 C 382.896 132.903,382.808 132.334,382.588 132.068 C 382.368 131.802,382.066 130.928,381.916 130.126 C 381.766 129.325,381.502 128.669,381.329 128.669 C 381.156 128.669,380.893 128.100,380.745 127.405 C 380.597 126.710,380.146 125.408,379.742 124.511 C 379.339 123.614,379.009 122.733,379.009 122.552 C 379.009 122.372,378.659 121.538,378.231 120.700 C 377.804 119.861,377.454 118.862,377.454 118.480 C 377.454 118.097,377.293 117.784,377.096 117.784 C 376.899 117.784,376.623 117.259,376.482 116.618 C 376.341 115.977,376.084 115.452,375.911 115.452 C 375.738 115.452,375.482 114.840,375.341 114.091 C 375.201 113.343,374.919 112.731,374.715 112.731 C 374.511 112.731,374.344 112.528,374.344 112.281 C 374.344 111.365,372.189 107.307,371.697 107.298 C 371.417 107.293,371.302 107.104,371.441 106.879 C 371.705 106.452,369.750 102.235,369.289 102.235 C 369.144 102.235,368.815 101.535,368.559 100.680 C 368.303 99.825,367.925 99.125,367.720 99.125 C 367.515 99.125,367.347 98.871,367.347 98.560 C 367.347 98.249,366.940 97.588,366.444 97.091 C 365.947 96.594,365.611 95.974,365.699 95.713 C 365.786 95.452,365.689 95.238,365.483 95.238 C 365.277 95.238,364.879 94.670,364.598 93.975 C 364.317 93.280,363.990 92.624,363.870 92.517 C 363.323 92.026,361.905 89.784,361.905 89.411 C 361.905 89.182,361.642 88.893,361.322 88.770 C 361.001 88.647,360.739 88.297,360.739 87.993 C 360.739 87.688,360.492 87.345,360.191 87.229 C 359.889 87.113,359.539 86.606,359.413 86.102 C 359.286 85.598,358.964 84.955,358.697 84.672 C 358.430 84.390,357.707 83.415,357.089 82.506 C 356.472 81.597,355.579 80.435,355.106 79.925 C 354.633 79.414,354.134 78.704,353.996 78.346 C 353.859 77.989,353.585 77.796,353.387 77.919 C 353.189 78.041,352.920 77.652,352.789 77.054 C 352.657 76.456,352.031 75.538,351.396 75.014 C 350.762 74.490,350.243 73.859,350.243 73.611 C 350.243 73.364,349.631 72.624,348.882 71.967 C 348.134 71.310,347.522 70.585,347.522 70.356 C 347.522 70.127,346.822 69.274,345.967 68.461 C 345.112 67.647,344.412 66.866,344.412 66.725 C 344.412 66.204,337.890 59.907,337.625 60.172 C 337.474 60.323,337.408 60.259,337.480 60.028 C 337.635 59.525,332.377 54.182,331.877 54.334 C 331.684 54.393,331.614 54.299,331.721 54.125 C 331.829 53.952,331.035 53.029,329.958 52.075 C 328.881 51.121,327.201 49.597,326.224 48.688 C 325.247 47.779,324.293 47.036,324.104 47.036 C 323.914 47.036,323.318 46.511,322.778 45.870 C 322.238 45.228,321.585 44.704,321.327 44.704 C 321.069 44.704,320.428 44.186,319.904 43.554 C 319.380 42.922,318.776 42.397,318.562 42.387 C 318.188 42.371,316.507 41.096,315.225 39.857 C 314.886 39.529,314.405 39.261,314.156 39.261 C 313.907 39.261,313.703 39.083,313.703 38.864 C 313.703 38.646,313.222 38.256,312.634 37.998 C 312.046 37.740,311.425 37.306,311.254 37.034 C 311.083 36.763,310.708 36.540,310.421 36.540 C 310.134 36.540,309.798 36.278,309.675 35.957 C 309.552 35.637,309.210 35.374,308.915 35.374 C 308.621 35.374,307.959 35.028,307.445 34.604 C 305.955 33.375,305.796 33.267,304.568 32.654 C 303.926 32.333,303.261 31.852,303.090 31.585 C 302.920 31.317,302.526 31.098,302.216 31.098 C 301.906 31.098,301.652 30.944,301.652 30.755 C 301.652 30.566,301.346 30.311,300.972 30.188 C 300.598 30.066,299.592 29.521,298.737 28.979 C 297.881 28.437,296.744 27.777,296.210 27.513 C 295.675 27.249,295.151 26.927,295.044 26.799 C 294.937 26.671,294.281 26.318,293.586 26.016 C 292.891 25.714,292.323 25.348,292.323 25.203 C 292.323 25.059,291.798 24.825,291.156 24.684 C 290.515 24.543,289.990 24.274,289.990 24.086 C 289.990 23.898,289.291 23.534,288.435 23.278 C 287.580 23.021,286.880 22.684,286.880 22.527 C 286.880 22.370,286.401 22.121,285.815 21.974 C 285.230 21.827,284.661 21.590,284.552 21.446 C 284.233 21.027,280.952 19.492,279.786 19.216 C 279.198 19.077,278.717 18.807,278.717 18.617 C 278.717 18.426,278.533 18.270,278.307 18.270 C 278.082 18.270,277.120 17.916,276.169 17.483 C 275.219 17.050,273.916 16.591,273.275 16.463 C 272.634 16.334,272.109 16.084,272.109 15.907 C 272.109 15.729,271.497 15.469,270.748 15.329 C 270.000 15.189,269.388 14.936,269.388 14.767 C 269.388 14.598,268.469 14.245,267.347 13.982 C 266.224 13.719,265.131 13.367,264.917 13.201 C 264.704 13.034,263.873 12.775,263.071 12.625 C 262.269 12.475,261.613 12.216,261.613 12.049 C 261.613 11.883,260.476 11.520,259.086 11.244 C 257.697 10.968,256.560 10.615,256.560 10.461 C 256.560 10.306,255.685 10.060,254.616 9.913 C 253.547 9.766,252.672 9.464,252.672 9.242 C 252.672 8.994,252.113 8.929,251.215 9.073 C 250.214 9.234,249.940 9.191,250.340 8.936 C 250.780 8.655,250.612 8.562,249.660 8.558 C 248.965 8.555,248.397 8.358,248.397 8.121 C 248.397 7.856,248.023 7.784,247.425 7.934 C 246.890 8.068,246.453 8.017,246.453 7.820 C 246.453 7.623,245.360 7.336,244.023 7.183 C 242.687 7.029,241.506 6.769,241.399 6.605 C 241.293 6.441,240.076 6.196,238.697 6.062 C 237.317 5.927,236.093 5.671,235.976 5.492 C 235.859 5.314,233.489 4.936,230.709 4.653 C 227.930 4.369,225.565 4.004,225.453 3.842 C 225.342 3.679,222.587 3.422,219.331 3.270 C 216.075 3.119,213.411 2.846,213.411 2.663 C 213.411 2.481,207.726 2.332,200.777 2.332 C 193.829 2.332,188.144 2.481,188.144 2.663 M194.363 105.339 C 194.470 105.492,197.357 105.732,200.777 105.874 C 210.413 106.272,214.754 106.586,214.966 106.900 C 215.073 107.058,217.058 107.307,219.378 107.453 C 221.698 107.600,223.885 107.876,224.237 108.068 C 224.590 108.259,227.196 108.621,230.029 108.872 C 232.862 109.124,235.180 109.462,235.180 109.623 C 235.180 109.785,236.667 110.042,238.484 110.193 C 240.301 110.344,241.788 110.604,241.788 110.771 C 241.788 110.937,243.712 111.302,246.064 111.582 C 248.416 111.862,250.340 112.217,250.340 112.371 C 250.340 112.526,251.565 112.775,253.061 112.925 C 254.558 113.075,255.782 113.341,255.782 113.516 C 255.782 113.690,257.357 114.056,259.281 114.328 C 261.205 114.600,262.779 114.944,262.779 115.093 C 262.779 115.241,263.741 115.483,264.917 115.629 C 266.093 115.776,267.055 116.048,267.055 116.234 C 267.055 116.419,267.886 116.691,268.902 116.838 C 269.917 116.985,270.966 117.278,271.232 117.490 C 271.498 117.702,272.149 117.793,272.678 117.692 C 273.207 117.591,273.552 117.651,273.444 117.825 C 273.336 118.000,274.129 118.259,275.205 118.402 C 276.282 118.545,277.162 118.795,277.162 118.957 C 277.162 119.120,277.818 119.375,278.620 119.525 C 279.422 119.675,280.253 119.931,280.466 120.093 C 280.680 120.256,281.948 120.614,283.285 120.889 C 284.621 121.164,285.714 121.529,285.714 121.701 C 285.714 121.872,286.501 122.131,287.464 122.275 C 288.426 122.419,289.213 122.664,289.213 122.820 C 289.213 122.975,290.175 123.333,291.351 123.615 C 292.527 123.897,293.489 124.260,293.489 124.421 C 293.489 124.581,294.189 124.831,295.044 124.976 C 295.899 125.120,296.599 125.384,296.599 125.562 C 296.599 125.740,297.165 126.010,297.856 126.162 C 298.548 126.314,299.466 126.660,299.897 126.932 C 300.328 127.204,301.249 127.545,301.944 127.690 C 302.638 127.834,303.207 128.114,303.207 128.311 C 303.207 128.508,303.516 128.669,303.893 128.669 C 304.270 128.669,305.247 129.027,306.064 129.464 C 306.880 129.902,308.058 130.295,308.681 130.339 C 309.304 130.382,309.814 130.623,309.815 130.873 C 309.815 131.123,310.340 131.443,310.982 131.584 C 311.623 131.725,312.148 131.968,312.148 132.125 C 312.148 132.281,313.022 132.633,314.091 132.907 C 315.160 133.181,316.035 133.561,316.035 133.751 C 316.035 133.941,316.472 134.206,317.007 134.340 C 317.541 134.474,317.979 134.717,317.979 134.880 C 317.979 135.043,318.766 135.396,319.728 135.666 C 320.690 135.935,321.477 136.289,321.477 136.452 C 321.477 136.614,321.914 136.857,322.449 136.992 C 322.983 137.126,323.421 137.407,323.421 137.617 C 323.421 137.826,323.660 137.998,323.951 137.998 C 324.243 137.998,324.899 138.324,325.409 138.722 C 325.919 139.120,326.774 139.581,327.308 139.746 C 327.843 139.911,328.367 140.154,328.474 140.286 C 328.781 140.663,330.110 141.460,331.487 142.093 C 332.182 142.412,332.750 142.834,332.750 143.031 C 332.750 143.227,333.114 143.503,333.559 143.644 C 334.533 143.954,336.638 146.084,336.638 146.760 C 336.638 147.027,336.900 147.345,337.221 147.468 C 337.541 147.591,337.804 147.960,337.804 148.287 C 337.804 148.615,337.979 148.882,338.192 148.882 C 338.406 148.882,338.553 149.014,338.518 149.174 C 338.484 149.334,338.659 149.958,338.907 150.560 C 339.155 151.162,339.359 151.891,339.359 152.180 C 339.359 152.468,339.577 152.778,339.845 152.867 C 340.471 153.076,340.515 160.025,339.898 161.359 C 339.661 161.873,339.010 163.237,338.452 164.390 C 337.894 165.543,337.531 166.637,337.644 166.820 C 337.757 167.003,337.577 167.153,337.244 167.153 C 336.910 167.153,336.638 167.302,336.638 167.485 C 336.638 168.316,332.539 171.817,331.567 171.817 C 331.362 171.817,331.195 171.964,331.195 172.144 C 331.195 172.323,330.452 172.705,329.543 172.991 C 328.635 173.278,327.657 173.690,327.371 173.907 C 326.677 174.434,319.169 174.423,318.826 173.895 C 318.563 173.491,317.028 173.019,315.358 172.829 C 314.878 172.775,314.353 172.584,314.191 172.406 C 314.029 172.227,314.116 172.207,314.383 172.361 C 314.650 172.515,314.869 172.455,314.869 172.229 C 314.869 172.003,314.628 171.817,314.333 171.817 C 314.039 171.817,313.587 171.564,313.330 171.254 C 313.073 170.944,312.221 170.482,311.436 170.227 C 310.652 169.972,309.870 169.526,309.699 169.236 C 309.528 168.945,309.134 168.707,308.824 168.707 C 308.514 168.707,308.260 168.533,308.260 168.319 C 308.260 168.105,308.059 167.930,307.813 167.930 C 307.298 167.930,303.111 165.921,302.814 165.531 C 302.705 165.388,302.137 165.150,301.551 165.003 C 300.965 164.856,300.486 164.561,300.486 164.348 C 300.486 164.134,300.224 164.060,299.903 164.183 C 299.582 164.306,299.320 164.252,299.320 164.061 C 299.320 163.871,298.751 163.592,298.056 163.442 C 297.362 163.291,296.706 163.058,296.599 162.925 C 296.320 162.577,293.932 161.462,292.225 160.883 C 291.424 160.611,290.768 160.248,290.768 160.077 C 290.768 159.907,290.496 159.767,290.163 159.767 C 289.831 159.767,288.759 159.402,287.781 158.957 C 286.803 158.511,285.413 158.051,284.692 157.934 C 283.972 157.817,283.382 157.585,283.382 157.418 C 283.382 157.251,282.682 156.996,281.827 156.851 C 280.972 156.707,280.272 156.429,280.272 156.234 C 280.272 156.039,279.966 155.878,279.592 155.877 C 279.218 155.876,278.412 155.614,277.802 155.296 C 277.192 154.978,276.536 154.814,276.344 154.933 C 276.153 155.051,275.996 154.979,275.996 154.773 C 275.996 154.566,275.121 154.277,274.052 154.130 C 272.983 153.983,272.109 153.715,272.109 153.534 C 272.109 153.354,271.322 153.088,270.360 152.944 C 269.397 152.799,268.610 152.550,268.610 152.389 C 268.610 152.228,267.298 151.863,265.695 151.578 C 264.091 151.293,262.779 150.926,262.779 150.762 C 262.779 150.598,261.905 150.348,260.836 150.206 C 259.767 150.064,258.892 149.824,258.892 149.672 C 258.892 149.521,257.405 149.165,255.588 148.882 C 253.771 148.600,252.284 148.203,252.284 148.000 C 252.284 147.797,251.672 147.703,250.923 147.790 C 250.175 147.877,249.563 147.809,249.563 147.638 C 249.563 147.467,249.038 147.328,248.397 147.328 C 247.755 147.328,247.230 147.173,247.230 146.984 C 247.230 146.795,246.050 146.516,244.606 146.363 C 243.163 146.210,241.765 145.907,241.499 145.689 C 241.233 145.471,240.583 145.375,240.055 145.476 C 239.526 145.577,239.044 145.533,238.983 145.379 C 238.923 145.225,237.655 144.983,236.168 144.841 C 234.680 144.700,233.368 144.433,233.252 144.248 C 233.136 144.063,231.478 143.806,229.566 143.676 C 227.625 143.544,225.969 143.243,225.815 142.995 C 225.664 142.750,225.241 142.664,224.876 142.804 C 224.511 142.944,223.575 142.895,222.796 142.695 C 222.017 142.494,219.543 142.212,217.298 142.067 C 215.053 141.922,213.113 141.638,212.986 141.435 C 212.860 141.232,211.985 141.078,211.043 141.093 C 207.428 141.152,201.142 140.604,200.621 140.185 C 199.853 139.569,145.865 139.561,145.467 140.177 C 145.301 140.433,142.998 140.718,139.754 140.883 C 136.765 141.035,134.228 141.298,134.118 141.468 C 134.007 141.637,131.994 141.903,129.643 142.057 C 127.293 142.212,125.282 142.455,125.173 142.598 C 125.065 142.740,124.276 142.849,123.421 142.838 C 122.566 142.828,121.691 142.939,121.477 143.086 C 121.263 143.234,119.784 143.482,118.189 143.639 C 116.594 143.796,115.019 144.064,114.690 144.236 C 114.361 144.407,112.517 144.811,110.593 145.134 C 105.519 145.986,102.457 146.657,102.235 146.964 C 102.128 147.112,101.122 147.358,100.000 147.511 C 98.878 147.664,97.959 147.913,97.959 148.064 C 97.959 148.215,96.603 148.577,94.947 148.867 C 93.290 149.158,91.809 149.586,91.656 149.819 C 91.274 150.403,81.703 150.396,81.327 149.812 C 81.174 149.575,80.394 149.146,79.592 148.859 C 78.790 148.572,78.134 148.198,78.134 148.027 C 78.134 147.856,77.911 147.716,77.637 147.716 C 77.364 147.716,76.841 147.366,76.475 146.939 C 76.109 146.511,75.545 146.161,75.222 146.161 C 74.900 146.161,74.636 146.010,74.636 145.826 C 74.636 145.328,72.439 142.656,72.215 142.881 C 72.109 142.987,71.800 142.282,71.529 141.313 C 71.258 140.345,70.890 139.553,70.711 139.553 C 70.533 139.553,70.270 138.678,70.129 137.609 C 69.987 136.540,69.718 135.666,69.532 135.666 C 69.346 135.666,69.193 134.529,69.193 133.139 C 69.193 131.749,69.346 130.612,69.532 130.612 C 69.719 130.612,69.977 129.956,70.106 129.155 C 70.235 128.353,70.689 127.015,71.115 126.182 C 71.541 125.348,71.797 124.517,71.685 124.335 C 71.572 124.153,71.753 124.004,72.086 124.004 C 72.419 124.004,72.692 123.841,72.692 123.642 C 72.692 123.001,77.512 118.391,78.309 118.270 C 78.733 118.205,79.454 117.907,79.911 117.608 C 80.368 117.308,81.379 116.944,82.159 116.797 C 82.938 116.651,83.576 116.399,83.576 116.236 C 83.576 116.074,84.451 115.825,85.520 115.683 C 86.589 115.541,87.464 115.278,87.464 115.097 C 87.464 114.917,88.866 114.551,90.580 114.285 C 92.295 114.018,93.784 113.659,93.891 113.487 C 93.997 113.315,95.044 113.054,96.216 112.908 C 97.389 112.761,98.348 112.515,98.348 112.360 C 98.348 112.206,100.097 111.848,102.235 111.565 C 104.373 111.282,106.122 110.924,106.122 110.770 C 106.122 110.616,107.434 110.367,109.038 110.217 C 110.641 110.066,111.953 109.810,111.953 109.646 C 111.953 109.483,114.317 109.128,117.206 108.857 C 120.095 108.587,122.554 108.211,122.671 108.021 C 122.788 107.832,123.573 107.677,124.416 107.677 C 125.366 107.677,125.959 107.493,125.978 107.191 C 125.995 106.924,126.082 106.880,126.172 107.094 C 126.359 107.542,131.480 107.375,131.778 106.912 C 131.991 106.583,135.898 106.284,144.847 105.914 C 148.028 105.782,150.982 105.512,151.409 105.314 C 152.885 104.631,193.883 104.655,194.363 105.339 M156.560 140.210 C 156.186 140.307,155.573 140.307,155.199 140.210 C 154.825 140.112,155.131 140.032,155.879 140.032 C 156.628 140.032,156.934 140.112,156.560 140.210 M186.183 170.997 C 186.300 171.176,189.169 171.428,192.560 171.558 C 195.951 171.687,198.925 171.948,199.168 172.137 C 199.412 172.326,202.454 172.704,205.928 172.978 C 209.402 173.251,212.245 173.606,212.245 173.766 C 212.245 173.927,213.732 174.182,215.549 174.333 C 217.366 174.484,218.853 174.731,218.853 174.880 C 218.853 175.030,220.821 175.382,223.226 175.663 C 225.632 175.944,227.687 176.307,227.794 176.469 C 227.901 176.632,228.991 176.889,230.217 177.040 C 231.443 177.191,232.536 177.459,232.646 177.637 C 232.756 177.815,233.896 178.082,235.179 178.231 C 236.462 178.380,237.512 178.658,237.512 178.848 C 237.512 179.039,237.906 179.190,238.387 179.184 C 239.754 179.167,243.732 180.077,243.732 180.406 C 243.732 180.569,244.694 180.822,245.870 180.969 C 247.046 181.116,248.008 181.375,248.008 181.545 C 248.008 181.715,249.232 182.060,250.729 182.313 C 252.225 182.565,253.450 182.912,253.450 183.082 C 253.450 183.253,254.106 183.515,254.908 183.665 C 255.709 183.815,256.540 184.077,256.754 184.248 C 256.968 184.419,258.149 184.781,259.378 185.053 C 260.607 185.324,261.613 185.683,261.613 185.850 C 261.613 186.016,262.400 186.271,263.362 186.415 C 264.325 186.559,265.112 186.804,265.112 186.960 C 265.112 187.115,266.074 187.473,267.250 187.755 C 268.426 188.037,269.388 188.396,269.388 188.551 C 269.388 188.707,270.000 188.950,270.748 189.090 C 271.497 189.230,272.109 189.512,272.109 189.716 C 272.109 189.920,272.418 190.087,272.795 190.087 C 273.172 190.087,274.091 190.414,274.836 190.813 C 275.581 191.212,276.759 191.663,277.454 191.816 C 278.149 191.968,278.717 192.246,278.717 192.433 C 278.717 192.620,279.329 192.888,280.078 193.029 C 280.826 193.169,281.438 193.411,281.438 193.567 C 281.438 193.723,282.138 194.081,282.993 194.363 C 283.848 194.646,284.548 195.016,284.548 195.186 C 284.548 195.355,285.160 195.609,285.909 195.750 C 286.657 195.890,287.269 196.138,287.269 196.300 C 287.269 196.462,288.056 196.815,289.018 197.085 C 289.981 197.354,290.768 197.713,290.768 197.882 C 290.768 198.051,291.294 198.305,291.937 198.446 C 292.581 198.587,293.016 198.849,292.906 199.028 C 292.795 199.207,293.231 199.469,293.874 199.611 C 294.517 199.752,295.044 200.007,295.044 200.178 C 295.044 200.349,295.612 200.719,296.307 201.000 C 297.002 201.281,297.674 201.661,297.800 201.844 C 297.926 202.027,298.421 202.206,298.901 202.243 C 299.380 202.279,299.928 202.600,300.119 202.956 C 300.309 203.312,300.949 203.725,301.541 203.873 C 302.132 204.022,302.705 204.261,302.814 204.404 C 303.110 204.792,304.405 205.577,305.831 206.233 C 306.526 206.552,307.094 206.986,307.094 207.197 C 307.094 207.408,307.313 207.583,307.580 207.587 C 307.847 207.591,308.478 208.028,308.982 208.559 C 309.485 209.090,310.018 209.524,310.167 209.524 C 310.315 209.524,310.658 210.136,310.929 210.884 C 311.199 211.633,311.565 212.245,311.742 212.245 C 311.919 212.245,312.184 212.724,312.331 213.310 C 312.478 213.896,312.767 214.479,312.973 214.607 C 313.179 214.734,313.440 216.048,313.554 217.526 C 313.668 219.004,313.833 220.442,313.922 220.720 C 314.010 220.998,313.910 221.119,313.698 220.989 C 313.487 220.858,313.314 221.114,313.314 221.557 C 313.314 222.000,313.165 222.666,312.982 223.037 C 312.800 223.409,312.319 224.404,311.913 225.249 C 311.508 226.094,310.782 227.213,310.301 227.735 C 309.820 228.258,309.427 228.834,309.427 229.017 C 309.427 229.199,309.243 229.349,309.019 229.349 C 308.795 229.349,308.227 229.760,307.756 230.263 C 307.285 230.766,306.255 231.388,305.467 231.646 C 304.679 231.903,303.967 232.317,303.884 232.566 C 303.682 233.171,295.520 233.217,295.128 232.616 C 294.975 232.381,294.338 232.064,293.714 231.911 C 293.089 231.758,292.147 231.294,291.621 230.880 C 291.094 230.465,290.424 230.126,290.132 230.126 C 289.840 230.126,289.602 229.979,289.602 229.800 C 289.602 229.442,287.639 228.395,287.172 228.504 C 287.012 228.541,286.880 228.410,286.880 228.214 C 286.880 228.017,286.370 227.744,285.747 227.607 C 285.123 227.470,284.516 227.106,284.398 226.798 C 284.280 226.491,283.916 226.239,283.588 226.239 C 283.261 226.239,282.993 226.083,282.993 225.892 C 282.993 225.702,282.572 225.440,282.057 225.311 C 281.543 225.182,280.814 224.958,280.439 224.814 C 279.936 224.621,279.840 224.688,280.074 225.067 C 280.281 225.402,280.242 225.489,279.960 225.315 C 279.723 225.168,279.621 224.808,279.733 224.514 C 279.869 224.160,279.537 223.892,278.745 223.718 C 278.088 223.574,277.551 223.323,277.551 223.160 C 277.551 222.997,276.823 222.646,275.934 222.379 C 275.045 222.113,274.070 221.648,273.768 221.346 C 273.467 221.044,272.795 220.797,272.275 220.797 C 271.756 220.797,271.331 220.663,271.331 220.500 C 271.331 220.052,267.646 218.394,266.503 218.328 C 265.952 218.296,265.501 218.071,265.501 217.828 C 265.501 217.584,264.888 217.270,264.140 217.130 C 263.392 216.989,262.779 216.700,262.779 216.486 C 262.779 216.273,262.561 216.134,262.293 216.177 C 262.026 216.221,261.315 216.054,260.713 215.806 C 260.111 215.558,259.368 215.355,259.061 215.355 C 258.754 215.355,258.503 215.180,258.503 214.966 C 258.503 214.752,258.105 214.577,257.618 214.577 C 257.131 214.577,256.388 214.337,255.966 214.042 C 255.544 213.748,254.193 213.283,252.964 213.009 C 251.735 212.734,250.729 212.374,250.729 212.207 C 250.729 212.040,249.942 211.786,248.980 211.641 C 248.017 211.497,247.230 211.256,247.230 211.106 C 247.230 210.956,246.092 210.606,244.700 210.330 C 243.308 210.053,242.081 209.683,241.973 209.508 C 241.865 209.333,240.817 209.070,239.644 208.923 C 238.471 208.777,237.512 208.513,237.512 208.337 C 237.512 208.161,236.681 207.896,235.666 207.749 C 234.650 207.602,233.608 207.314,233.350 207.109 C 233.092 206.904,232.691 206.853,232.459 206.997 C 232.226 207.141,231.825 207.085,231.567 206.874 C 231.309 206.662,230.092 206.364,228.863 206.212 C 227.634 206.060,226.628 205.758,226.628 205.541 C 226.628 205.307,226.074 205.236,225.267 205.367 C 224.519 205.488,223.907 205.450,223.907 205.283 C 223.907 205.115,223.355 204.962,222.681 204.943 C 222.007 204.923,221.351 204.740,221.224 204.535 C 221.096 204.330,219.023 203.932,216.618 203.651 C 214.213 203.371,212.245 203.022,212.245 202.876 C 212.245 202.730,210.496 202.485,208.358 202.332 C 206.220 202.179,204.470 201.928,204.470 201.774 C 204.470 201.471,194.310 200.573,190.962 200.579 C 189.840 200.581,188.921 200.416,188.921 200.213 C 188.921 199.440,148.558 199.462,148.080 200.235 C 147.914 200.503,147.130 200.678,146.293 200.635 C 143.823 200.507,132.945 201.470,132.945 201.816 C 132.945 201.993,132.099 202.138,131.066 202.138 C 130.032 202.138,129.061 202.264,128.907 202.418 C 128.753 202.572,128.024 202.646,127.287 202.583 C 126.550 202.519,125.948 202.618,125.948 202.801 C 125.948 202.985,124.073 203.358,121.782 203.630 C 119.492 203.902,117.436 204.271,117.215 204.449 C 116.994 204.626,115.894 204.895,114.772 205.046 C 113.649 205.197,112.731 205.457,112.731 205.623 C 112.731 205.789,111.687 206.043,110.410 206.187 C 109.134 206.332,107.982 206.624,107.851 206.836 C 107.719 207.049,107.277 207.117,106.867 206.987 C 106.458 206.857,106.122 206.915,106.122 207.115 C 106.122 207.316,105.248 207.596,104.179 207.738 C 103.110 207.880,102.235 208.138,102.235 208.312 C 102.235 209.354,92.041 209.441,91.371 208.405 C 91.253 208.223,90.786 207.958,90.334 207.817 C 89.453 207.543,84.742 203.301,84.742 202.782 C 84.742 202.611,84.496 202.225,84.195 201.924 C 83.894 201.622,83.528 200.673,83.383 199.813 C 83.238 198.954,82.960 198.251,82.765 198.251 C 82.570 198.251,82.410 197.726,82.410 197.085 C 82.410 196.443,82.235 195.918,82.021 195.918 C 81.808 195.918,81.633 195.569,81.633 195.141 C 81.633 194.713,81.808 194.363,82.021 194.363 C 82.235 194.363,82.410 193.849,82.410 193.220 C 82.410 192.591,82.565 191.981,82.755 191.864 C 83.028 191.695,83.545 189.936,83.741 188.507 C 83.757 188.386,84.252 187.841,84.840 187.296 C 85.428 186.751,85.909 186.138,85.909 185.934 C 85.909 185.466,87.724 183.868,88.256 183.868 C 88.475 183.868,88.755 183.605,88.878 183.285 C 89.001 182.964,89.308 182.702,89.561 182.702 C 89.814 182.702,90.680 182.365,91.486 181.955 C 92.292 181.544,93.641 181.091,94.483 180.949 C 95.326 180.806,96.016 180.565,96.016 180.412 C 96.016 180.260,97.332 179.901,98.941 179.615 C 100.550 179.330,101.948 178.965,102.046 178.806 C 102.144 178.647,103.189 178.396,104.368 178.249 C 105.547 178.101,106.511 177.839,106.511 177.666 C 106.511 177.492,107.648 177.228,109.038 177.079 C 110.428 176.931,111.565 176.674,111.565 176.508 C 111.565 176.343,113.401 175.982,115.646 175.705 C 117.891 175.428,119.728 175.070,119.728 174.910 C 119.728 174.750,121.171 174.493,122.935 174.338 C 124.699 174.183,126.229 173.925,126.336 173.765 C 126.443 173.604,129.242 173.244,132.556 172.963 C 135.870 172.683,138.678 172.312,138.797 172.138 C 138.915 171.965,141.802 171.709,145.211 171.571 C 148.620 171.432,151.503 171.175,151.618 170.998 C 152.080 170.290,185.724 170.288,186.183 170.997 M9.611 190.185 C 9.524 190.879,9.454 190.311,9.454 188.921 C 9.454 187.532,9.524 186.963,9.611 187.658 C 9.697 188.353,9.697 189.490,9.611 190.185 M9.608 200.486 C 9.519 201.074,9.446 200.593,9.446 199.417 C 9.446 198.241,9.519 197.760,9.608 198.348 C 9.697 198.936,9.697 199.898,9.608 200.486 M164.821 232.750 C 164.821 232.911,167.882 233.042,171.623 233.042 C 175.365 233.042,178.426 232.911,178.426 232.750 C 178.426 232.590,179.125 232.459,179.981 232.459 C 180.836 232.459,181.535 232.634,181.535 232.847 C 181.535 233.081,183.090 233.236,185.423 233.236 C 187.561 233.236,189.310 233.384,189.310 233.566 C 189.310 233.747,191.628 234.014,194.461 234.160 C 201.878 234.540,205.025 234.844,205.254 235.200 C 205.364 235.372,206.982 235.637,208.849 235.789 C 210.717 235.940,212.245 236.189,212.245 236.342 C 212.245 236.495,214.082 236.846,216.327 237.123 C 218.571 237.400,220.408 237.796,220.408 238.002 C 220.408 238.209,220.941 238.300,221.591 238.204 C 222.242 238.109,222.865 238.176,222.975 238.354 C 223.085 238.533,223.690 238.678,224.318 238.678 C 224.947 238.678,225.462 238.825,225.462 239.004 C 225.462 239.184,226.948 239.562,228.766 239.845 C 230.583 240.127,232.070 240.483,232.070 240.635 C 232.070 240.786,232.945 241.027,234.014 241.168 C 235.083 241.310,235.957 241.579,235.957 241.765 C 235.957 241.951,236.832 242.224,237.901 242.371 C 238.970 242.518,239.845 242.773,239.845 242.938 C 239.845 243.102,240.894 243.460,242.177 243.732 C 243.460 244.004,244.509 244.358,244.509 244.518 C 244.509 244.679,245.296 244.928,246.259 245.072 C 247.221 245.216,248.008 245.486,248.008 245.671 C 248.008 245.857,248.970 246.224,250.146 246.487 C 251.322 246.750,252.284 247.104,252.284 247.275 C 252.284 247.445,252.896 247.699,253.644 247.839 C 254.393 247.979,255.005 248.232,255.005 248.401 C 255.005 248.570,255.879 248.918,256.948 249.174 C 258.017 249.430,258.892 249.790,258.892 249.973 C 258.892 250.155,259.504 250.420,260.253 250.560 C 261.001 250.701,261.613 250.957,261.613 251.130 C 261.613 251.303,262.138 251.560,262.779 251.701 C 263.421 251.842,263.946 252.090,263.946 252.252 C 263.946 252.415,264.645 252.779,265.500 253.061 C 266.356 253.343,267.055 253.721,267.055 253.901 C 267.055 254.080,267.241 254.227,267.468 254.227 C 268.013 254.227,272.247 256.218,272.501 256.594 C 272.611 256.755,273.179 257.007,273.765 257.154 C 274.351 257.301,274.830 257.564,274.830 257.737 C 274.830 257.911,275.340 258.165,275.964 258.302 C 276.588 258.439,277.489 258.890,277.967 259.305 C 278.445 259.719,279.072 260.058,279.360 260.058 C 279.648 260.058,279.883 260.212,279.883 260.400 C 279.883 260.588,280.452 260.975,281.147 261.260 C 282.370 261.762,282.805 262.043,283.951 263.071 C 284.249 263.338,284.659 263.557,284.861 263.557 C 285.064 263.557,285.447 263.817,285.711 264.136 C 285.975 264.454,286.351 264.616,286.545 264.495 C 286.740 264.375,286.868 264.421,286.828 264.597 C 286.691 265.214,287.357 266.278,287.882 266.278 C 288.173 266.278,288.319 266.518,288.206 266.811 C 288.094 267.104,288.312 267.654,288.690 268.032 C 289.578 268.920,289.899 276.028,289.088 276.849 C 288.812 277.128,288.470 277.663,288.329 278.037 C 288.187 278.411,287.908 278.717,287.708 278.717 C 287.509 278.717,287.164 279.236,286.943 279.870 C 286.686 280.608,286.184 281.112,285.545 281.272 C 284.997 281.410,284.548 281.670,284.548 281.851 C 284.548 284.345,273.287 284.235,272.174 281.730 C 272.102 281.569,271.818 281.438,271.541 281.438 C 271.264 281.438,270.821 281.177,270.555 280.857 C 270.290 280.537,269.394 280.072,268.564 279.824 C 267.734 279.575,267.055 279.229,267.055 279.056 C 267.055 278.705,263.158 276.774,262.450 276.774 C 262.204 276.774,262.002 276.602,262.002 276.392 C 262.002 276.183,261.565 275.901,261.030 275.767 C 260.496 275.633,260.058 275.390,260.058 275.227 C 260.058 275.064,259.271 274.711,258.309 274.441 C 257.347 274.172,256.560 273.781,256.560 273.572 C 256.560 273.363,256.288 273.296,255.956 273.423 C 255.625 273.551,255.437 273.519,255.540 273.353 C 255.642 273.187,255.170 272.819,254.491 272.536 C 253.811 272.252,252.636 271.712,251.880 271.336 C 251.123 270.959,249.942 270.528,249.256 270.378 C 248.569 270.227,248.008 269.956,248.008 269.776 C 248.008 269.597,247.439 269.326,246.744 269.175 C 246.050 269.025,245.380 268.744,245.257 268.551 C 245.134 268.359,244.479 268.162,243.800 268.114 C 243.122 268.066,242.567 267.896,242.566 267.736 C 242.566 267.575,242.226 267.444,241.811 267.444 C 241.396 267.444,240.958 267.284,240.837 267.089 C 240.717 266.894,239.919 266.616,239.065 266.472 C 238.211 266.328,237.512 266.069,237.512 265.897 C 237.512 265.725,236.375 265.359,234.985 265.083 C 233.596 264.806,232.459 264.448,232.459 264.287 C 232.459 264.125,231.669 263.875,230.705 263.730 C 229.740 263.586,228.855 263.312,228.738 263.123 C 228.621 262.934,228.209 262.779,227.822 262.779 C 227.435 262.779,226.089 262.451,224.832 262.050 C 223.575 261.649,221.453 261.195,220.117 261.040 C 218.780 260.886,217.687 260.619,217.687 260.448 C 217.687 260.277,216.463 260.014,214.966 259.864 C 213.469 259.714,212.245 259.441,212.245 259.257 C 212.245 259.074,211.764 258.927,211.176 258.931 C 209.255 258.945,201.949 257.984,201.747 257.691 C 201.639 257.534,199.453 257.278,196.888 257.123 C 194.202 256.960,192.108 256.657,191.948 256.408 C 191.550 255.790,150.389 255.798,149.622 256.417 C 149.322 256.660,146.803 256.985,144.023 257.141 C 141.244 257.296,138.879 257.568,138.768 257.745 C 138.656 257.921,136.820 258.187,134.686 258.335 C 132.552 258.483,130.390 258.760,129.881 258.952 C 129.371 259.144,128.620 259.194,128.210 259.064 C 127.800 258.934,127.195 259.052,126.865 259.326 C 126.535 259.600,125.655 259.783,124.908 259.732 C 124.162 259.682,123.641 259.786,123.750 259.963 C 123.860 260.140,123.333 260.213,122.581 260.125 C 121.828 260.037,120.834 260.151,120.373 260.379 C 119.911 260.606,117.971 260.988,116.062 261.227 C 114.153 261.465,112.284 261.825,111.909 262.026 C 111.534 262.226,110.768 262.391,110.207 262.391 C 109.646 262.391,109.272 262.529,109.376 262.698 C 109.481 262.867,108.946 262.933,108.188 262.845 C 107.293 262.740,106.695 262.871,106.481 263.218 C 106.082 263.863,97.716 263.994,97.265 263.362 C 97.112 263.148,96.513 262.728,95.933 262.429 C 92.649 260.738,90.360 256.549,90.420 252.342 C 90.442 250.770,90.637 249.371,90.853 249.232 C 91.069 249.093,91.380 248.550,91.544 248.026 C 91.708 247.501,92.038 246.851,92.277 246.580 C 92.516 246.310,93.140 245.558,93.665 244.910 C 94.189 244.262,94.851 243.732,95.135 243.732 C 95.419 243.732,95.750 243.474,95.871 243.159 C 95.992 242.844,96.686 242.475,97.414 242.339 C 98.141 242.202,98.737 241.955,98.737 241.790 C 98.737 241.625,99.874 241.368,101.263 241.219 C 102.653 241.071,103.790 240.814,103.790 240.648 C 103.790 240.483,105.627 240.121,107.872 239.845 C 110.117 239.568,111.953 239.210,111.953 239.050 C 111.953 238.736,114.581 238.287,116.355 238.299 C 117.004 238.303,117.351 238.144,117.206 237.909 C 117.056 237.666,117.574 237.493,118.539 237.464 C 119.407 237.437,120.248 237.380,120.408 237.336 C 120.569 237.293,122.318 237.117,124.295 236.946 C 126.273 236.775,127.891 236.501,127.891 236.338 C 127.891 236.175,129.684 235.914,131.876 235.758 C 134.067 235.603,135.948 235.344,136.054 235.182 C 136.277 234.846,139.702 234.544,147.619 234.164 C 150.666 234.018,153.158 233.749,153.158 233.567 C 153.158 233.385,154.995 233.236,157.240 233.236 C 159.702 233.236,161.322 233.082,161.322 232.847 C 161.322 232.634,162.109 232.459,163.071 232.459 C 164.033 232.459,164.820 232.590,164.821 232.750 M160.447 256.439 C 160.073 256.537,159.461 256.537,159.086 256.439 C 158.712 256.341,159.018 256.261,159.767 256.261 C 160.515 256.261,160.821 256.341,160.447 256.439 M183.382 256.439 C 183.008 256.537,182.396 256.537,182.021 256.439 C 181.647 256.341,181.953 256.261,182.702 256.261 C 183.450 256.261,183.756 256.341,183.382 256.439 M204.373 385.906 C 202.716 385.979,200.005 385.979,198.348 385.906 C 196.691 385.833,198.047 385.774,201.361 385.774 C 204.674 385.774,206.030 385.833,204.373 385.906 " stroke="none" fill="#1cd464" fill-rule="evenodd"></path><path id="path1" d="M155.199 140.210 C 155.573 140.307,156.186 140.307,156.560 140.210 C 156.934 140.112,156.628 140.032,155.879 140.032 C 155.131 140.032,154.825 140.112,155.199 140.210 M164.939 170.553 C 167.248 170.622,170.922 170.621,173.102 170.552 C 175.282 170.483,173.392 170.427,168.902 170.427 C 164.412 170.427,162.629 170.484,164.939 170.553 M9.454 188.921 C 9.454 190.311,9.524 190.879,9.611 190.185 C 9.697 189.490,9.697 188.353,9.611 187.658 C 9.524 186.963,9.454 187.532,9.454 188.921 M81.633 195.141 C 81.633 195.569,81.808 195.918,82.021 195.918 C 82.235 195.918,82.410 195.569,82.410 195.141 C 82.410 194.713,82.235 194.363,82.021 194.363 C 81.808 194.363,81.633 194.713,81.633 195.141 M9.446 199.417 C 9.446 200.593,9.519 201.074,9.608 200.486 C 9.697 199.898,9.697 198.936,9.608 198.348 C 9.519 197.760,9.446 198.241,9.446 199.417 M159.481 199.696 C 160.071 199.785,160.946 199.783,161.424 199.691 C 161.902 199.598,161.419 199.525,160.350 199.528 C 159.281 199.531,158.890 199.607,159.481 199.696 M175.807 199.696 C 176.398 199.785,177.273 199.783,177.751 199.691 C 178.229 199.598,177.745 199.525,176.676 199.528 C 175.607 199.531,175.216 199.607,175.807 199.696 M161.322 232.847 C 161.322 233.061,162.109 233.236,163.071 233.236 C 164.033 233.236,164.820 233.061,164.820 232.847 C 164.820 232.634,164.033 232.459,163.071 232.459 C 162.109 232.459,161.322 232.634,161.322 232.847 M178.426 232.847 C 178.426 233.061,179.125 233.236,179.981 233.236 C 180.836 233.236,181.535 233.061,181.535 232.847 C 181.535 232.634,180.836 232.459,179.981 232.459 C 179.125 232.459,178.426 232.634,178.426 232.847 M159.086 256.439 C 159.461 256.537,160.073 256.537,160.447 256.439 C 160.821 256.341,160.515 256.261,159.767 256.261 C 159.018 256.261,158.712 256.341,159.086 256.439 M182.021 256.439 C 182.396 256.537,183.008 256.537,183.382 256.439 C 183.756 256.341,183.450 256.261,182.702 256.261 C 181.953 256.261,181.647 256.341,182.021 256.439 M198.348 385.906 C 200.005 385.979,202.716 385.979,204.373 385.906 C 206.030 385.833,204.674 385.774,201.361 385.774 C 198.047 385.774,196.691 385.833,198.348 385.906 " stroke="none" fill="#20d464" fill-rule="evenodd"></path><path id="path2" d="M155.199 140.210 C 155.573 140.307,156.186 140.307,156.560 140.210 C 156.934 140.112,156.628 140.032,155.879 140.032 C 155.131 140.032,154.825 140.112,155.199 140.210 M164.939 170.553 C 167.248 170.622,170.922 170.621,173.102 170.552 C 175.282 170.483,173.392 170.427,168.902 170.427 C 164.412 170.427,162.629 170.484,164.939 170.553 M9.454 188.921 C 9.454 190.311,9.524 190.879,9.611 190.185 C 9.697 189.490,9.697 188.353,9.611 187.658 C 9.524 186.963,9.454 187.532,9.454 188.921 M81.633 195.141 C 81.633 195.569,81.808 195.918,82.021 195.918 C 82.235 195.918,82.410 195.569,82.410 195.141 C 82.410 194.713,82.235 194.363,82.021 194.363 C 81.808 194.363,81.633 194.713,81.633 195.141 M9.446 199.417 C 9.446 200.593,9.519 201.074,9.608 200.486 C 9.697 199.898,9.697 198.936,9.608 198.348 C 9.519 197.760,9.446 198.241,9.446 199.417 M159.481 199.696 C 160.071 199.785,160.946 199.783,161.424 199.691 C 161.902 199.598,161.419 199.525,160.350 199.528 C 159.281 199.531,158.890 199.607,159.481 199.696 M175.807 199.696 C 176.398 199.785,177.273 199.783,177.751 199.691 C 178.229 199.598,177.745 199.525,176.676 199.528 C 175.607 199.531,175.216 199.607,175.807 199.696 M161.322 232.847 C 161.322 233.061,162.109 233.236,163.071 233.236 C 164.033 233.236,164.820 233.061,164.820 232.847 C 164.820 232.634,164.033 232.459,163.071 232.459 C 162.109 232.459,161.322 232.634,161.322 232.847 M178.426 232.847 C 178.426 233.061,179.125 233.236,179.981 233.236 C 180.836 233.236,181.535 233.061,181.535 232.847 C 181.535 232.634,180.836 232.459,179.981 232.459 C 179.125 232.459,178.426 232.634,178.426 232.847 M159.086 256.439 C 159.461 256.537,160.073 256.537,160.447 256.439 C 160.821 256.341,160.515 256.261,159.767 256.261 C 159.018 256.261,158.712 256.341,159.086 256.439 M182.021 256.439 C 182.396 256.537,183.008 256.537,183.382 256.439 C 183.756 256.341,183.450 256.261,182.702 256.261 C 181.953 256.261,181.647 256.341,182.021 256.439 M198.348 385.906 C 200.005 385.979,202.716 385.979,204.373 385.906 C 206.030 385.833,204.674 385.774,201.361 385.774 C 198.047 385.774,196.691 385.833,198.348 385.906 " stroke="none" fill="#20d464" fill-rule="evenodd"></path><path id="path3" d="M155.199 140.210 C 155.573 140.307,156.186 140.307,156.560 140.210 C 156.934 140.112,156.628 140.032,155.879 140.032 C 155.131 140.032,154.825 140.112,155.199 140.210 M164.939 170.553 C 167.248 170.622,170.922 170.621,173.102 170.552 C 175.282 170.483,173.392 170.427,168.902 170.427 C 164.412 170.427,162.629 170.484,164.939 170.553 M9.454 188.921 C 9.454 190.311,9.524 190.879,9.611 190.185 C 9.697 189.490,9.697 188.353,9.611 187.658 C 9.524 186.963,9.454 187.532,9.454 188.921 M81.633 195.141 C 81.633 195.569,81.808 195.918,82.021 195.918 C 82.235 195.918,82.410 195.569,82.410 195.141 C 82.410 194.713,82.235 194.363,82.021 194.363 C 81.808 194.363,81.633 194.713,81.633 195.141 M9.446 199.417 C 9.446 200.593,9.519 201.074,9.608 200.486 C 9.697 199.898,9.697 198.936,9.608 198.348 C 9.519 197.760,9.446 198.241,9.446 199.417 M159.481 199.696 C 160.071 199.785,160.946 199.783,161.424 199.691 C 161.902 199.598,161.419 199.525,160.350 199.528 C 159.281 199.531,158.890 199.607,159.481 199.696 M175.807 199.696 C 176.398 199.785,177.273 199.783,177.751 199.691 C 178.229 199.598,177.745 199.525,176.676 199.528 C 175.607 199.531,175.216 199.607,175.807 199.696 M161.322 232.847 C 161.322 233.061,162.109 233.236,163.071 233.236 C 164.033 233.236,164.820 233.061,164.820 232.847 C 164.820 232.634,164.033 232.459,163.071 232.459 C 162.109 232.459,161.322 232.634,161.322 232.847 M178.426 232.847 C 178.426 233.061,179.125 233.236,179.981 233.236 C 180.836 233.236,181.535 233.061,181.535 232.847 C 181.535 232.634,180.836 232.459,179.981 232.459 C 179.125 232.459,178.426 232.634,178.426 232.847 M159.086 256.439 C 159.461 256.537,160.073 256.537,160.447 256.439 C 160.821 256.341,160.515 256.261,159.767 256.261 C 159.018 256.261,158.712 256.341,159.086 256.439 M182.021 256.439 C 182.396 256.537,183.008 256.537,183.382 256.439 C 183.756 256.341,183.450 256.261,182.702 256.261 C 181.953 256.261,181.647 256.341,182.021 256.439 M198.348 385.906 C 200.005 385.979,202.716 385.979,204.373 385.906 C 206.030 385.833,204.674 385.774,201.361 385.774 C 198.047 385.774,196.691 385.833,198.348 385.906 " stroke="none" fill="#20d464" fill-rule="evenodd"></path><path id="path4" d="M155.199 140.210 C 155.573 140.307,156.186 140.307,156.560 140.210 C 156.934 140.112,156.628 140.032,155.879 140.032 C 155.131 140.032,154.825 140.112,155.199 140.210 M164.939 170.553 C 167.248 170.622,170.922 170.621,173.102 170.552 C 175.282 170.483,173.392 170.427,168.902 170.427 C 164.412 170.427,162.629 170.484,164.939 170.553 M9.454 188.921 C 9.454 190.311,9.524 190.879,9.611 190.185 C 9.697 189.490,9.697 188.353,9.611 187.658 C 9.524 186.963,9.454 187.532,9.454 188.921 M81.633 195.141 C 81.633 195.569,81.808 195.918,82.021 195.918 C 82.235 195.918,82.410 195.569,82.410 195.141 C 82.410 194.713,82.235 194.363,82.021 194.363 C 81.808 194.363,81.633 194.713,81.633 195.141 M9.446 199.417 C 9.446 200.593,9.519 201.074,9.608 200.486 C 9.697 199.898,9.697 198.936,9.608 198.348 C 9.519 197.760,9.446 198.241,9.446 199.417 M159.481 199.696 C 160.071 199.785,160.946 199.783,161.424 199.691 C 161.902 199.598,161.419 199.525,160.350 199.528 C 159.281 199.531,158.890 199.607,159.481 199.696 M175.807 199.696 C 176.398 199.785,177.273 199.783,177.751 199.691 C 178.229 199.598,177.745 199.525,176.676 199.528 C 175.607 199.531,175.216 199.607,175.807 199.696 M161.322 232.847 C 161.322 233.061,162.109 233.236,163.071 233.236 C 164.033 233.236,164.820 233.061,164.820 232.847 C 164.820 232.634,164.033 232.459,163.071 232.459 C 162.109 232.459,161.322 232.634,161.322 232.847 M178.426 232.847 C 178.426 233.061,179.125 233.236,179.981 233.236 C 180.836 233.236,181.535 233.061,181.535 232.847 C 181.535 232.634,180.836 232.459,179.981 232.459 C 179.125 232.459,178.426 232.634,178.426 232.847 M159.086 256.439 C 159.461 256.537,160.073 256.537,160.447 256.439 C 160.821 256.341,160.515 256.261,159.767 256.261 C 159.018 256.261,158.712 256.341,159.086 256.439 M182.021 256.439 C 182.396 256.537,183.008 256.537,183.382 256.439 C 183.756 256.341,183.450 256.261,182.702 256.261 C 181.953 256.261,181.647 256.341,182.021 256.439 M198.348 385.906 C 200.005 385.979,202.716 385.979,204.373 385.906 C 206.030 385.833,204.674 385.774,201.361 385.774 C 198.047 385.774,196.691 385.833,198.348 385.906 " stroke="none" fill="#20d464" fill-rule="evenodd"></path></g></svg>